<svg width="41" height="25" viewBox="0 0 41 25" fill="none" xmlns="http://www.w3.org/2000/svg">
<path d="M39.9179 9.14439L36.8821 10.2142C36.5062 10.3587 36.2749 10.7346 36.2749 11.1394V14.4065C34.7715 13.5969 33.268 12.9609 31.6489 12.4115H31.5911C27.977 11.0526 24.1027 10.3876 20.026 10.3876C15.9494 10.3876 12.0462 11.0815 8.37426 12.4115C6.81298 12.9609 5.36735 13.6258 3.8928 14.3776V10.9081C3.8928 10.5322 3.6615 10.1563 3.34346 10.0407L0.567854 8.91309C-0.212787 8.59505 -0.183874 7.38072 0.625679 7.0916L20.4019 0.123656C20.9512 -0.04982 21.5873 -0.04982 22.1078 0.181481L39.9468 7.46746C40.6986 7.75659 40.6697 8.88418 39.9179 9.11548V9.14439Z" fill="#0A2540"/>
<path d="M36.2461 17.6458V24.5848C34.7426 23.7753 33.2392 23.1392 31.6201 22.5899H31.5622C27.9482 21.231 24.0739 20.566 19.9972 20.566C15.9205 20.566 12.0173 21.2599 8.34542 22.5899C6.78413 23.1392 5.3385 23.8042 3.86396 24.5559V17.6169C5.30959 16.8652 6.78413 16.2002 8.34542 15.6508C12.0173 14.3498 15.9494 13.627 19.9972 13.627C24.045 13.627 27.9482 14.2919 31.5622 15.6508H31.6201C33.2392 16.2002 34.7426 16.8652 36.2461 17.6747V17.6458Z" fill="#05D154"/>
</svg>
