<svg width="187" height="74" viewBox="0 0 187 74" fill="none" xmlns="http://www.w3.org/2000/svg">
<path d="M114.412 9.79936L111.158 10.9458C110.755 11.1007 110.508 11.5035 110.508 11.9372V15.4384C108.896 14.5708 107.285 13.8892 105.55 13.3005H105.488C101.615 11.8443 97.4636 11.1317 93.0949 11.1317C88.7262 11.1317 84.5434 11.8753 80.6085 13.3005C78.9354 13.8892 77.3862 14.6018 75.8061 15.4074V11.6894C75.8061 11.2866 75.5582 10.8838 75.2174 10.7599L72.243 9.5515C71.4064 9.21068 71.4374 7.90937 72.305 7.59954L93.4977 0.132513C94.0864 -0.0533884 94.768 -0.0533884 95.3257 0.19448L114.443 8.00232C115.248 8.31216 115.217 9.52051 114.412 9.76838V9.79936Z" fill="#0A2540"/>
<path d="M110.477 18.9092V26.3453C108.866 25.4777 107.254 24.7961 105.519 24.2074H105.457C101.584 22.7512 97.4327 22.0386 93.064 22.0386C88.6953 22.0386 84.5126 22.7822 80.5777 24.2074C78.9045 24.7961 77.3554 25.5087 75.7752 26.3143V18.8783C77.3244 18.0727 78.9045 17.3601 80.5777 16.7714C84.5126 15.3771 88.7263 14.6025 93.064 14.6025C97.4017 14.6025 101.584 15.3152 105.457 16.7714H105.519C107.254 17.3601 108.866 18.0727 110.477 18.9402V18.9092Z" fill="#05D154"/>
<path d="M25.2231 56.294C23.738 56.294 22.4232 55.9775 21.2789 55.3202C20.1347 54.6628 19.2338 53.762 18.5765 52.642C17.9191 51.4977 17.6026 50.183 17.6026 48.7222C17.6026 47.2614 17.9191 45.9223 18.5765 44.8024C19.2338 43.6581 20.1347 42.7573 21.2789 42.1243C22.4232 41.4669 23.738 41.1504 25.2231 41.1504C27.0978 41.1504 28.6803 41.6373 29.9464 42.6112C31.2367 43.5851 32.0402 44.9241 32.381 46.6527H28.2421C28.0717 45.9954 27.7065 45.4598 27.1708 45.0946C26.6352 44.705 25.9779 44.5346 25.2231 44.5346C24.5657 44.5346 23.9571 44.705 23.4215 45.0459C22.8858 45.3867 22.4476 45.8736 22.1311 46.5067C21.8146 47.1397 21.6685 47.8944 21.6685 48.7709C21.6685 49.4283 21.7659 50.0126 21.9363 50.5482C22.1311 51.0595 22.3745 51.4977 22.6911 51.8873C23.0076 52.2525 23.3971 52.5446 23.811 52.7394C24.2249 52.9342 24.7118 53.0316 25.2231 53.0316C25.7344 53.0316 26.197 52.9585 26.5865 52.7881C27.0004 52.6177 27.3413 52.3742 27.6334 52.0577C27.9256 51.7412 28.1204 51.3516 28.2421 50.9134H32.381C32.0402 52.5933 31.2367 53.9324 29.9464 54.9063C28.656 55.9045 27.0735 56.3914 25.2231 56.3914V56.294Z" fill="#0A2540"/>
<path d="M39.3684 56.2949C38.1511 56.2949 37.1285 56.1001 36.3251 55.7105C35.5216 55.321 34.913 54.7854 34.5234 54.128C34.1339 53.4706 33.9391 52.7402 33.9391 51.9368C33.9391 51.036 34.1582 50.2569 34.6208 49.5752C35.0834 48.8935 35.7651 48.3822 36.7146 47.9926C37.6398 47.6031 38.8328 47.4083 40.2449 47.4083H43.8969C43.8969 46.7023 43.7995 46.118 43.5804 45.6797C43.3613 45.2415 43.0691 44.8763 42.6552 44.6572C42.2413 44.438 41.7057 44.3163 41.0727 44.3163C40.3179 44.3163 39.6606 44.4867 39.125 44.8032C38.5893 45.1441 38.2485 45.631 38.1267 46.3127H34.3043C34.426 45.2415 34.7913 44.3163 35.3756 43.5372C35.9842 42.7581 36.7877 42.1494 37.7615 41.7356C38.7598 41.2973 39.8554 41.1025 41.0727 41.1025C42.4605 41.1025 43.6534 41.3217 44.676 41.7842C45.6986 42.2468 46.4777 42.9042 47.0376 43.805C47.5976 44.6815 47.8654 45.7771 47.8654 47.0431V55.954H44.5299L44.0917 53.7141C43.8969 54.1037 43.6534 54.4445 43.3369 54.761C43.0448 55.0775 42.6796 55.3453 42.29 55.5888C41.9005 55.8323 41.4622 56.0027 40.9753 56.1244C40.4884 56.2462 39.9527 56.3192 39.3684 56.3192V56.2949ZM40.2936 53.2515C40.8292 53.2515 41.2918 53.1541 41.6814 52.9837C42.0709 52.7889 42.4118 52.5455 42.7039 52.229C42.9961 51.9125 43.2152 51.5473 43.3856 51.1577C43.5561 50.7438 43.6534 50.3056 43.7265 49.843H40.6831C40.0745 49.843 39.5875 49.916 39.198 50.0621C38.8085 50.2082 38.5406 50.403 38.3702 50.6708C38.1998 50.9386 38.1024 51.2308 38.1024 51.596C38.1024 51.9612 38.1998 52.2533 38.3702 52.4968C38.5406 52.7402 38.8085 52.935 39.125 53.0568C39.4658 53.1785 39.8554 53.2515 40.2936 53.2515Z" fill="#0A2540"/>
<path d="M56.1435 56.2943C54.8045 56.2943 53.5871 55.9535 52.5159 55.2961C51.4446 54.6388 50.5925 53.7136 49.9595 52.5693C49.3265 51.4007 49.0343 50.1103 49.0343 48.6738C49.0343 47.2374 49.3508 45.9227 49.9595 44.7784C50.5925 43.6341 51.4446 42.7332 52.5159 42.1002C53.5871 41.4429 54.8045 41.1264 56.1435 41.1264C57.2148 41.1264 58.1643 41.3211 58.9677 41.735C59.7712 42.1246 60.4285 42.6846 60.9155 43.3906V34.918H64.8596V55.9535H61.3537L60.9155 53.9327C60.6233 54.371 60.2581 54.7605 59.8199 55.1257C59.3816 55.4909 58.8703 55.7831 58.2617 55.9778C57.653 56.197 56.947 56.2943 56.1679 56.2943H56.1435ZM57.02 52.8371C57.7991 52.8371 58.4808 52.6667 59.0895 52.3015C59.6981 51.9363 60.1607 51.4494 60.5016 50.8163C60.8424 50.1833 61.0129 49.4773 61.0129 48.6738C61.0129 47.8704 60.8424 47.14 60.5016 46.507C60.1607 45.874 59.6981 45.387 59.0895 45.0462C58.4808 44.7053 57.7991 44.5106 57.02 44.5106C56.2409 44.5106 55.5836 44.681 54.9505 45.0462C54.3175 45.4114 53.8549 45.874 53.5384 46.507C53.1976 47.14 53.0515 47.846 53.0515 48.6495C53.0515 49.4529 53.2219 50.1833 53.5384 50.8163C53.8793 51.4494 54.3419 51.9363 54.9505 52.3015C55.5592 52.6667 56.2409 52.8371 57.02 52.8371Z" fill="#0A2540"/>
<path d="M82.3162 55.954V41.4677H85.7978L86.1143 43.4155C86.5769 42.6851 87.2099 42.1251 87.9647 41.7112C88.7438 41.2973 89.6202 41.1025 90.6428 41.1025C91.3732 41.1025 92.0549 41.1999 92.6392 41.3704C93.2236 41.5651 93.7592 41.8329 94.2218 42.2225C94.6843 42.612 95.0739 43.0746 95.3661 43.6346C95.9017 42.8555 96.6321 42.2468 97.5086 41.7842C98.385 41.3217 99.3589 41.1025 100.406 41.1025C101.672 41.1025 102.743 41.3704 103.62 41.8816C104.496 42.3929 105.153 43.1477 105.616 44.1459C106.054 45.1441 106.298 46.3614 106.298 47.8222V55.954H102.378V48.1874C102.378 46.9701 102.159 46.0449 101.696 45.4119C101.234 44.7789 100.528 44.438 99.5537 44.438C98.8963 44.438 98.312 44.6085 97.8251 44.925C97.3381 45.2415 96.9486 45.7041 96.6808 46.2884C96.413 46.8727 96.2669 47.6031 96.2669 48.4552V55.9297H92.3471V48.1631C92.3471 46.9457 92.1036 46.0206 91.641 45.3876C91.1784 44.7545 90.4237 44.4137 89.4255 44.4137C88.7925 44.4137 88.2568 44.5841 87.7699 44.9006C87.283 45.2171 86.9178 45.6797 86.6499 46.264C86.3821 46.8484 86.2361 47.5788 86.2361 48.4309V55.9053H82.2919L82.3162 55.954Z" fill="#0A2540"/>
<path d="M107.637 55.9531V41.4668H111.581V55.9531H107.637Z" fill="#0A2540"/>
<path d="M112.043 37.1335C112.043 37.7665 111.824 38.3022 111.362 38.716C110.899 39.1299 110.315 39.3491 109.584 39.3491C108.903 39.3491 108.318 39.1299 107.856 38.716C107.393 38.3022 107.174 37.7665 107.174 37.1335C107.174 36.5005 107.393 35.9649 107.856 35.5266C108.318 35.1127 108.903 34.918 109.584 34.918C110.315 34.918 110.899 35.1127 111.362 35.5266C111.824 35.9649 112.043 36.4762 112.043 37.1335Z" fill="#05D154"/>
<path d="M118.617 56.2949C117.4 56.2949 116.377 56.1001 115.574 55.7105C114.77 55.321 114.162 54.7854 113.772 54.128C113.382 53.4706 113.188 52.7402 113.188 51.9368C113.188 51.036 113.407 50.2569 113.869 49.5752C114.332 48.8935 115.014 48.3822 115.963 47.9926C116.888 47.6031 118.081 47.4083 119.493 47.4083H123.145C123.145 46.7023 123.048 46.118 122.829 45.6797C122.61 45.2415 122.318 44.8763 121.904 44.6572C121.49 44.438 120.954 44.3163 120.321 44.3163C119.567 44.3163 118.909 44.4867 118.374 44.8032C117.838 45.1441 117.497 45.631 117.375 46.3127H113.553C113.675 45.2415 114.04 44.3163 114.624 43.5372C115.233 42.7581 116.036 42.1494 117.01 41.7356C118.008 41.2973 119.104 41.1025 120.321 41.1025C121.709 41.1025 122.902 41.3217 123.925 41.7842C124.947 42.2468 125.726 42.9042 126.286 43.805C126.846 44.6815 127.114 45.7771 127.114 47.0431V55.954H123.779L123.34 53.7141C123.145 54.1037 122.902 54.4445 122.586 54.761C122.293 55.0775 121.928 55.3453 121.539 55.5888C121.149 55.8323 120.711 56.0027 120.224 56.1244C119.737 56.2462 119.201 56.3192 118.617 56.3192V56.2949ZM119.542 53.2515C120.078 53.2515 120.54 53.1541 120.93 52.9837C121.32 52.7889 121.66 52.5455 121.953 52.229C122.245 51.9125 122.464 51.5473 122.634 51.1577C122.805 50.7438 122.902 50.3056 122.975 49.843H119.932C119.323 49.843 118.836 49.916 118.447 50.0621C118.057 50.2082 117.789 50.403 117.619 50.6708C117.448 50.9386 117.351 51.2308 117.351 51.596C117.351 51.9612 117.448 52.2533 117.619 52.4968C117.789 52.7402 118.057 52.935 118.374 53.0568C118.714 53.1785 119.104 53.2515 119.542 53.2515Z" fill="#0A2540"/>
<path d="M143.572 55.9535V34.918H147.516V55.9535H143.572Z" fill="#0A2540"/>
<path d="M156.768 56.2948C155.38 56.2948 154.139 55.9783 153.019 55.3209C151.899 54.6636 150.998 53.7871 150.341 52.6428C149.683 51.4985 149.342 50.1838 149.342 48.6986C149.342 47.2135 149.683 45.8744 150.341 44.7301C150.998 43.5858 151.899 42.7094 153.019 42.052C154.139 41.419 155.405 41.0781 156.793 41.0781C158.18 41.0781 159.471 41.3946 160.591 42.052C161.711 42.685 162.611 43.5858 163.269 44.7301C163.926 45.8744 164.243 47.1891 164.243 48.6986C164.243 50.2081 163.902 51.5228 163.244 52.6671C162.587 53.8114 161.686 54.6879 160.566 55.3453C159.446 56.0026 158.18 56.3191 156.744 56.3191L156.768 56.2948ZM156.793 52.8863C157.426 52.8863 157.986 52.7402 158.497 52.4237C159.008 52.1072 159.422 51.6446 159.763 51.0116C160.079 50.3786 160.25 49.6238 160.25 48.6986C160.25 47.7735 160.104 46.9944 159.787 46.3857C159.471 45.777 159.057 45.3144 158.545 44.9979C158.034 44.6814 157.45 44.5354 156.841 44.5354C156.233 44.5354 155.648 44.6814 155.113 44.9979C154.577 45.3144 154.163 45.777 153.847 46.3857C153.53 46.9944 153.384 47.7735 153.384 48.6986C153.384 49.6238 153.53 50.3786 153.847 51.0116C154.163 51.6446 154.577 52.1072 155.088 52.4237C155.6 52.7402 156.184 52.8863 156.793 52.8863Z" fill="#0A2540"/>
<path d="M168.162 55.9531L163.926 41.4668H167.822L170.743 53.6888H169.745L173.105 41.4668H177.487L180.847 53.6401H179.849L182.77 41.4668H186.666L182.43 55.9531H178.339L174.785 43.3902H175.856L172.253 55.9531H168.162Z" fill="#0A2540"/>
<path d="M128.648 44.1455V55.9536H132.592V47.2375H140.115V44.1455H128.648Z" fill="#0A2540"/>
<path d="M128.599 40.6151V36.5492C130.595 35.5023 132.86 34.918 135.27 34.918C137.68 34.918 139.969 35.5023 141.99 36.5735V40.6394C139.969 39.5682 137.705 38.9839 135.27 38.9839C132.835 38.9839 130.595 39.5682 128.599 40.6151Z" fill="#05D154"/>
<path d="M73.5025 56.2949C72.0174 56.2949 70.7026 55.9784 69.5827 55.3697C68.4384 54.7367 67.5619 53.8602 66.9046 52.7402C66.2716 51.6203 65.9307 50.3056 65.9307 48.8448C65.9307 47.384 66.2472 45.9962 66.8802 44.8276C67.5132 43.6589 68.3897 42.7581 69.534 42.1008C70.6783 41.4434 71.993 41.1025 73.5269 41.1025C74.9633 41.1025 76.2293 41.419 77.3493 42.0277C78.4449 42.6607 79.297 43.5129 79.93 44.5841C80.5387 45.6554 80.8552 46.897 80.8552 48.2605V48.9178C80.8552 49.1613 80.8552 49.4048 80.8065 49.6726H68.8036V47.2379H76.8624C76.8137 46.3614 76.4728 45.6554 75.8641 45.0954C75.2555 44.5598 74.4764 44.2676 73.5755 44.2676C72.8938 44.2676 72.2608 44.4137 71.7009 44.7302C71.1409 45.0224 70.6783 45.4849 70.3618 46.0936C70.0209 46.7023 69.8749 47.457 69.8749 48.3822V49.2343C69.8749 50.0134 70.0209 50.6951 70.3374 51.2794C70.654 51.8638 71.0922 52.302 71.6278 52.6185C72.1878 52.935 72.8208 53.0811 73.5025 53.0811C74.1842 53.0811 74.8172 52.9107 75.3042 52.5942C75.7911 52.2777 76.1563 51.8638 76.4241 51.3525H80.4657C80.1735 52.2777 79.7109 53.1054 79.0535 53.8602C78.3962 54.6149 77.6171 55.1993 76.6919 55.6375C75.7667 56.0757 74.6955 56.2949 73.5269 56.2949H73.5025Z" fill="#0A2540"/>
<path d="M76.3999 51.3516H76.6433C76.6433 51.3516 76.4486 51.4003 76.3755 51.4003C76.3755 51.4003 76.3999 51.4003 76.3999 51.3516Z" fill="#05D154"/>
<path d="M14.8758 48.6501C14.4132 48.431 13.9262 48.2362 13.4393 48.0658H13.415C12.4411 47.7006 11.4185 47.4328 10.3473 47.2867L7.81522 40.0071L5.28317 47.2867C4.21192 47.4571 3.16501 47.7006 2.16679 48.0658C1.70421 48.2362 1.26597 48.4067 0.827728 48.6258L5.59967 35.5029H10.0795L14.8758 48.6501Z" fill="#0A2540"/>
<path d="M0 55.9054V51.1578C0.706053 50.7926 1.41211 50.4761 2.16685 50.2082C3.94416 49.5752 5.8432 49.2344 7.81528 49.2344C9.78736 49.2344 11.6621 49.5509 13.415 50.2082H13.4394C14.2185 50.4761 14.9489 50.7926 15.6793 51.1821V55.9541C15.6793 55.9541 15.5575 55.881 15.4845 55.8567C15.0462 55.6132 14.5837 55.4184 14.1211 55.248C13.7802 55.0776 13.4394 54.9558 13.0985 54.8585C12.709 54.7124 12.3194 54.615 11.9299 54.5176H11.9055C10.5908 54.1767 9.22738 54.0063 7.81528 54.0063C6.40317 54.0063 5.08845 54.1767 3.79808 54.4689C3.35984 54.5906 2.9216 54.7124 2.48336 54.8585C2.26424 54.9315 2.04512 55.0045 1.826 55.1019C1.26603 55.2967 0.7304 55.5402 0.194773 55.808C0.121733 55.8323 0.07304 55.881 0 55.9054Z" fill="#05D154"/>
</svg>
